<svg
  xmlns="http://www.w3.org/2000/svg"
  width="24"
  height="24"
  viewBox="0 0 24 24"
  fill="none"
  stroke="currentColor"
  stroke-width="2"
  stroke-linecap="round"
  stroke-linejoin="round"
>
  <path
    d="M4.3 10.734L2.177 8.613a2 2 0 0 1 .127-2.956 19.79 19.79 0 0 1 8.273-3.931 19.5 19.5 0 0 1 8.486 0 19.79 19.79 0 0 1 8.301 3.96 2 2 0 0 1 .134 2.948l-2.12 2.121a2 2 0 0 1-2.631.198 12.84 12.84 0 0 0-2.482-1.492 2 2 0 0 1-1.174-1.81V5.855a16 16 0 0 0-8.485 0v1.796a2 2 0 0 1-1.174 1.81 12.84 12.84 0 0 0-2.482 1.492 2 2 0 0 1-2.652-.219z"
    fill-rule="evenodd"
  />
</svg>
